<svg width="1973" height="113" viewBox="0 0 1973 113" fill="none" xmlns="http://www.w3.org/2000/svg">
<mask id="path-1-outside-1_5_214" maskUnits="userSpaceOnUse" x="-1" y="-1" width="1975" height="115" fill="black">
<rect fill="white" x="-1" y="-1" width="1975" height="115"/>
<path d="M0.585227 101V13.7273H19.0369V49.7358H56.4943V13.7273H74.9034V101H56.4943V64.9489H19.0369V101H0.585227ZM90.1165 101V13.7273H148.923V28.9403H108.568V49.7358H145.898V64.9489H108.568V85.7869H149.094V101H90.1165ZM163.593 101V13.7273H182.045V85.7869H219.46V101H163.593ZM231.679 101V13.7273H250.131V85.7869H287.545V101H231.679ZM299.765 101V13.7273H358.572V28.9403H318.217V49.7358H355.546V64.9489H318.217V85.7869H358.742V101H299.765ZM446.239 13.7273V101H430.301L392.332 46.071H391.693V101H373.241V13.7273H389.435L427.105 68.6136H427.872V13.7273H446.239ZM508.827 38.8267C508.487 35.3892 507.023 32.7187 504.438 30.8153C501.853 28.9119 498.344 27.9602 493.913 27.9602C490.901 27.9602 488.359 28.3864 486.285 29.2386C484.211 30.0625 482.62 31.2131 481.512 32.6903C480.433 34.1676 479.893 35.8438 479.893 37.7188C479.836 39.2813 480.163 40.6449 480.873 41.8097C481.612 42.9744 482.62 43.983 483.898 44.8352C485.177 45.6591 486.654 46.3835 488.33 47.0085C490.006 47.6051 491.796 48.1165 493.7 48.5426L501.54 50.4176C505.347 51.2699 508.842 52.4062 512.023 53.8267C515.205 55.2472 517.961 56.9943 520.29 59.0682C522.62 61.142 524.424 63.5852 525.702 66.3977C527.009 69.2102 527.677 72.4347 527.705 76.071C527.677 81.4119 526.313 86.0426 523.614 89.9631C520.944 93.8551 517.08 96.8807 512.023 99.0398C506.995 101.17 500.93 102.236 493.827 102.236C486.782 102.236 480.646 101.156 475.418 98.9972C470.219 96.8381 466.157 93.642 463.231 89.4091C460.333 85.1477 458.813 79.8778 458.671 73.5994H476.526C476.725 76.5256 477.563 78.9687 479.04 80.929C480.546 82.8608 482.549 84.3239 485.049 85.3182C487.577 86.2841 490.433 86.767 493.614 86.767C496.739 86.767 499.452 86.3125 501.754 85.4034C504.083 84.4943 505.887 83.2301 507.165 81.6108C508.444 79.9915 509.083 78.1307 509.083 76.0284C509.083 74.0682 508.501 72.4205 507.336 71.0852C506.2 69.75 504.523 68.6136 502.308 67.6761C500.12 66.7386 497.435 65.8864 494.254 65.1193L484.751 62.733C477.393 60.9432 471.583 58.1449 467.322 54.3381C463.06 50.5312 460.944 45.4034 460.972 38.9545C460.944 33.6705 462.35 29.054 465.191 25.1051C468.06 21.1562 471.995 18.0739 476.995 15.858C481.995 13.642 487.677 12.5341 494.04 12.5341C500.518 12.5341 506.171 13.642 511.001 15.858C515.859 18.0739 519.637 21.1562 522.336 25.1051C525.035 29.054 526.427 33.6278 526.512 38.8267H508.827ZM536.793 28.9403V13.7273H608.469V28.9403H581.75V101H563.511V28.9403H536.793ZM620.273 101V13.7273H679.08V28.9403H638.724V49.7358H676.054V64.9489H638.724V85.7869H679.25V101H620.273ZM712.201 13.7273V101H693.749V13.7273H712.201ZM800.379 13.7273V101H784.442L746.473 46.071H745.834V101H727.382V13.7273H743.575L781.246 68.6136H782.013V13.7273H800.379ZM825.894 102.108C823.082 102.108 820.667 101.114 818.65 99.125C816.661 97.108 815.667 94.6932 815.667 91.8807C815.667 89.0966 816.661 86.7102 818.65 84.7216C820.667 82.733 823.082 81.7386 825.894 81.7386C828.621 81.7386 831.008 82.733 833.053 84.7216C835.099 86.7102 836.121 89.0966 836.121 91.8807C836.121 93.7557 835.638 95.4744 834.673 97.0369C833.735 98.571 832.499 99.8068 830.965 100.744C829.431 101.653 827.741 102.108 825.894 102.108ZM931.347 3.79999C948.267 3.79999 960.987 14.36 960.987 29.24C960.987 44 948.267 54.56 931.347 54.56C914.427 54.56 901.707 44 901.707 29.24C901.707 14.36 914.427 3.79999 931.347 3.79999ZM931.347 16.76C923.187 16.76 917.067 21.32 917.067 29.24C917.067 37.16 923.187 41.72 931.347 41.72C939.507 41.72 945.507 37.16 945.507 29.24C945.507 21.32 939.507 16.76 931.347 16.76ZM976.347 0.559999H992.427V56.12H976.347V0.559999ZM918.267 60.68H992.427V91.16H934.107V104.6H918.507V79.64H976.587V73.04H918.267V60.68ZM918.507 98.12H995.187V110.48H918.507V98.12ZM1034.78 6.55999H1047.86V16.4C1047.86 38.48 1038.26 57.92 1017.14 65.24L1008.62 52.64C1027.22 46.4 1034.78 31.52 1034.78 16.4V6.55999ZM1038.02 6.55999H1050.98V17.96C1050.98 31.28 1058.42 44.24 1075.82 49.64L1067.54 62C1047.5 55.28 1038.02 38 1038.02 17.96V6.55999ZM1081.94 0.559999H1097.9V66.2H1081.94V0.559999ZM1093.46 26.24H1112.66V39.44H1093.46V26.24ZM1061.66 68.72C1084.7 68.72 1099.22 76.76 1099.22 90.2C1099.22 103.76 1084.7 111.68 1061.66 111.68C1038.5 111.68 1023.98 103.76 1023.98 90.2C1023.98 76.76 1038.5 68.72 1061.66 68.72ZM1061.66 81.08C1047.5 81.08 1039.82 84.08 1039.82 90.2C1039.82 96.44 1047.5 99.32 1061.66 99.32C1075.82 99.32 1083.38 96.44 1083.38 90.2C1083.38 84.08 1075.82 81.08 1061.66 81.08ZM1165.21 41.48H1183.45V54.32H1165.21V41.48ZM1201.09 0.559999H1216.33V111.68H1201.09V0.559999ZM1178.41 2.24H1193.41V106.64H1178.41V2.24ZM1145.77 8.36C1160.53 8.36 1170.01 23.6 1170.01 48.68C1170.01 73.88 1160.53 89.12 1145.77 89.12C1131.13 89.12 1121.77 73.88 1121.77 48.68C1121.77 23.6 1131.13 8.36 1145.77 8.36ZM1145.77 23.36C1139.77 23.36 1136.29 31.76 1136.29 48.68C1136.29 65.72 1139.77 74 1145.77 74C1152.01 74 1155.49 65.72 1155.49 48.68C1155.49 31.76 1152.01 23.36 1145.77 23.36ZM1258.97 57.68H1359.41V70.4H1258.97V57.68ZM1301.09 42.08H1317.05V63.44H1301.09V42.08ZM1271.09 97.04H1348.13V109.76H1271.09V97.04ZM1271.09 77.48H1287.05V101.36H1271.09V77.48ZM1309.25 3.32C1333.37 3.32 1349.45 12.2 1349.45 26.24C1349.45 40.52 1333.37 49.16 1309.25 49.16C1285.01 49.16 1269.05 40.52 1269.05 26.24C1269.05 12.2 1285.01 3.32 1309.25 3.32ZM1309.25 16.04C1294.25 16.04 1285.49 19.52 1285.49 26.24C1285.49 33.08 1294.25 36.44 1309.25 36.44C1324.25 36.44 1333.01 33.08 1333.01 26.24C1333.01 19.52 1324.25 16.04 1309.25 16.04ZM1445.92 0.559999H1462V111.68H1445.92V0.559999ZM1413.16 12.08H1429C1429 46.04 1417.48 73.88 1378 92.96L1369.72 80.24C1401.64 64.88 1413.16 44.72 1413.16 14.96V12.08ZM1375.6 12.08H1420.72V24.68H1375.6V12.08ZM1479.75 50.36H1580.43V62H1479.75V50.36ZM1491.03 67.52H1568.43V93.92H1507.11V103.4H1491.27V83.84H1552.71V78.32H1491.03V67.52ZM1491.27 100.04H1571.55V110.84H1491.27V100.04ZM1492.11 2.48H1568.19V28.64H1508.07V37.76H1492.23V18.68H1552.47V13.16H1492.11V2.48ZM1492.23 34.4H1570.23V45.2H1492.23V34.4ZM1623.2 72.08H1632.2C1651.88 72.08 1664.72 71.6 1679.12 68.96L1680.68 81.8C1665.8 84.56 1652.48 85.16 1632.2 85.16H1623.2V72.08ZM1623.2 10.4H1673.48V23.12H1639.16V77H1623.2V10.4ZM1695.32 0.559999H1711.28V112.04H1695.32V0.559999ZM1668.08 38.84H1702.04V51.8H1668.08V38.84ZM1799.59 0.559999H1815.43V111.68H1799.59V0.559999ZM1811.83 43.88H1831.51V57.2H1811.83V43.88ZM1727.83 17H1792.51V29.72H1727.83V17ZM1760.35 35.96C1776.55 35.96 1788.55 47 1788.55 62.48C1788.55 77.96 1776.55 89 1760.35 89C1744.15 89 1732.15 77.96 1732.15 62.48C1732.15 47 1744.15 35.96 1760.35 35.96ZM1760.35 48.92C1752.79 48.92 1747.39 53.96 1747.39 62.48C1747.39 71 1752.79 76.04 1760.35 76.04C1767.91 76.04 1773.31 71 1773.31 62.48C1773.31 53.96 1767.91 48.92 1760.35 48.92ZM1752.31 2.36H1768.27V21.8H1752.31V2.36ZM1909.74 0.439993H1925.82V111.92H1909.74V0.439993ZM1922.22 41.6H1941.9V54.68H1922.22V41.6ZM1843.02 71.96H1852.38C1871.1 71.96 1885.86 71.36 1902.18 68.48L1903.74 81.68C1886.94 84.68 1871.7 85.16 1852.38 85.16H1843.02V71.96ZM1843.02 10.76H1894.86V23.6H1858.86V78.32H1843.02V10.76ZM1962.14 102.108C1959.33 102.108 1956.92 101.114 1954.9 99.125C1952.91 97.108 1951.92 94.6932 1951.92 91.8807C1951.92 89.0966 1952.91 86.7102 1954.9 84.7216C1956.92 82.733 1959.33 81.7386 1962.14 81.7386C1964.87 81.7386 1967.26 82.733 1969.3 84.7216C1971.35 86.7102 1972.37 89.0966 1972.37 91.8807C1972.37 93.7557 1971.89 95.4744 1970.92 97.0369C1969.99 98.571 1968.75 99.8068 1967.22 100.744C1965.68 101.653 1963.99 102.108 1962.14 102.108Z"/>
</mask>
<path d="M0.585227 101H-0.414773V102H0.585227V101ZM0.585227 13.7273V12.7273H-0.414773V13.7273H0.585227ZM19.0369 13.7273H20.0369V12.7273H19.0369V13.7273ZM19.0369 49.7358H18.0369V50.7358H19.0369V49.7358ZM56.4943 49.7358V50.7358H57.4943V49.7358H56.4943ZM56.4943 13.7273V12.7273H55.4943V13.7273H56.4943ZM74.9034 13.7273H75.9034V12.7273H74.9034V13.7273ZM74.9034 101V102H75.9034V101H74.9034ZM56.4943 101H55.4943V102H56.4943V101ZM56.4943 64.9489H57.4943V63.9489H56.4943V64.9489ZM19.0369 64.9489V63.9489H18.0369V64.9489H19.0369ZM19.0369 101V102H20.0369V101H19.0369ZM1.58523 101V13.7273H-0.414773V101H1.58523ZM0.585227 14.7273H19.0369V12.7273H0.585227V14.7273ZM18.0369 13.7273V49.7358H20.0369V13.7273H18.0369ZM19.0369 50.7358H56.4943V48.7358H19.0369V50.7358ZM57.4943 49.7358V13.7273H55.4943V49.7358H57.4943ZM56.4943 14.7273H74.9034V12.7273H56.4943V14.7273ZM73.9034 13.7273V101H75.9034V13.7273H73.9034ZM74.9034 100H56.4943V102H74.9034V100ZM57.4943 101V64.9489H55.4943V101H57.4943ZM56.4943 63.9489H19.0369V65.9489H56.4943V63.9489ZM18.0369 64.9489V101H20.0369V64.9489H18.0369ZM19.0369 100H0.585227V102H19.0369V100ZM90.1165 101H89.1165V102H90.1165V101ZM90.1165 13.7273V12.7273H89.1165V13.7273H90.1165ZM148.923 13.7273H149.923V12.7273H148.923V13.7273ZM148.923 28.9403V29.9403H149.923V28.9403H148.923ZM108.568 28.9403V27.9403H107.568V28.9403H108.568ZM108.568 49.7358H107.568V50.7358H108.568V49.7358ZM145.898 49.7358H146.898V48.7358H145.898V49.7358ZM145.898 64.9489V65.9489H146.898V64.9489H145.898ZM108.568 64.9489V63.9489H107.568V64.9489H108.568ZM108.568 85.7869H107.568V86.7869H108.568V85.7869ZM149.094 85.7869H150.094V84.7869H149.094V85.7869ZM149.094 101V102H150.094V101H149.094ZM91.1165 101V13.7273H89.1165V101H91.1165ZM90.1165 14.7273H148.923V12.7273H90.1165V14.7273ZM147.923 13.7273V28.9403H149.923V13.7273H147.923ZM148.923 27.9403H108.568V29.9403H148.923V27.9403ZM107.568 28.9403V49.7358H109.568V28.9403H107.568ZM108.568 50.7358H145.898V48.7358H108.568V50.7358ZM144.898 49.7358V64.9489H146.898V49.7358H144.898ZM145.898 63.9489H108.568V65.9489H145.898V63.9489ZM107.568 64.9489V85.7869H109.568V64.9489H107.568ZM108.568 86.7869H149.094V84.7869H108.568V86.7869ZM148.094 85.7869V101H150.094V85.7869H148.094ZM149.094 100H90.1165V102H149.094V100ZM163.593 101H162.593V102H163.593V101ZM163.593 13.7273V12.7273H162.593V13.7273H163.593ZM182.045 13.7273H183.045V12.7273H182.045V13.7273ZM182.045 85.7869H181.045V86.7869H182.045V85.7869ZM219.46 85.7869H220.46V84.7869H219.46V85.7869ZM219.46 101V102H220.46V101H219.46ZM164.593 101V13.7273H162.593V101H164.593ZM163.593 14.7273H182.045V12.7273H163.593V14.7273ZM181.045 13.7273V85.7869H183.045V13.7273H181.045ZM182.045 86.7869H219.46V84.7869H182.045V86.7869ZM218.46 85.7869V101H220.46V85.7869H218.46ZM219.46 100H163.593V102H219.46V100ZM231.679 101H230.679V102H231.679V101ZM231.679 13.7273V12.7273H230.679V13.7273H231.679ZM250.131 13.7273H251.131V12.7273H250.131V13.7273ZM250.131 85.7869H249.131V86.7869H250.131V85.7869ZM287.545 85.7869H288.545V84.7869H287.545V85.7869ZM287.545 101V102H288.545V101H287.545ZM232.679 101V13.7273H230.679V101H232.679ZM231.679 14.7273H250.131V12.7273H231.679V14.7273ZM249.131 13.7273V85.7869H251.131V13.7273H249.131ZM250.131 86.7869H287.545V84.7869H250.131V86.7869ZM286.545 85.7869V101H288.545V85.7869H286.545ZM287.545 100H231.679V102H287.545V100ZM299.765 101H298.765V102H299.765V101ZM299.765 13.7273V12.7273H298.765V13.7273H299.765ZM358.572 13.7273H359.572V12.7273H358.572V13.7273ZM358.572 28.9403V29.9403H359.572V28.9403H358.572ZM318.217 28.9403V27.9403H317.217V28.9403H318.217ZM318.217 49.7358H317.217V50.7358H318.217V49.7358ZM355.546 49.7358H356.546V48.7358H355.546V49.7358ZM355.546 64.9489V65.9489H356.546V64.9489H355.546ZM318.217 64.9489V63.9489H317.217V64.9489H318.217ZM318.217 85.7869H317.217V86.7869H318.217V85.7869ZM358.742 85.7869H359.742V84.7869H358.742V85.7869ZM358.742 101V102H359.742V101H358.742ZM300.765 101V13.7273H298.765V101H300.765ZM299.765 14.7273H358.572V12.7273H299.765V14.7273ZM357.572 13.7273V28.9403H359.572V13.7273H357.572ZM358.572 27.9403H318.217V29.9403H358.572V27.9403ZM317.217 28.9403V49.7358H319.217V28.9403H317.217ZM318.217 50.7358H355.546V48.7358H318.217V50.7358ZM354.546 49.7358V64.9489H356.546V49.7358H354.546ZM355.546 63.9489H318.217V65.9489H355.546V63.9489ZM317.217 64.9489V85.7869H319.217V64.9489H317.217ZM318.217 86.7869H358.742V84.7869H318.217V86.7869ZM357.742 85.7869V101H359.742V85.7869H357.742ZM358.742 100H299.765V102H358.742V100ZM446.239 13.7273H447.239V12.7273H446.239V13.7273ZM446.239 101V102H447.239V101H446.239ZM430.301 101L429.479 101.569L429.777 102H430.301V101ZM392.332 46.071L393.155 45.5024L392.857 45.071H392.332V46.071ZM391.693 46.071V45.071H390.693V46.071H391.693ZM391.693 101V102H392.693V101H391.693ZM373.241 101H372.241V102H373.241V101ZM373.241 13.7273V12.7273H372.241V13.7273H373.241ZM389.435 13.7273L390.259 13.1614L389.961 12.7273H389.435V13.7273ZM427.105 68.6136L426.281 69.1795L426.579 69.6136H427.105V68.6136ZM427.872 68.6136V69.6136H428.872V68.6136H427.872ZM427.872 13.7273V12.7273H426.872V13.7273H427.872ZM445.239 13.7273V101H447.239V13.7273H445.239ZM446.239 100H430.301V102H446.239V100ZM431.124 100.431L393.155 45.5024L391.51 46.6396L429.479 101.569L431.124 100.431ZM392.332 45.071H391.693V47.071H392.332V45.071ZM390.693 46.071V101H392.693V46.071H390.693ZM391.693 100H373.241V102H391.693V100ZM374.241 101V13.7273H372.241V101H374.241ZM373.241 14.7273H389.435V12.7273H373.241V14.7273ZM388.61 14.2931L426.281 69.1795L427.93 68.0478L390.259 13.1614L388.61 14.2931ZM427.105 69.6136H427.872V67.6136H427.105V69.6136ZM428.872 68.6136V13.7273H426.872V68.6136H428.872ZM427.872 14.7273H446.239V12.7273H427.872V14.7273ZM508.827 38.8267L507.832 38.9254L507.922 39.8267H508.827V38.8267ZM486.285 29.2386L486.654 30.1681L486.665 30.1636L486.285 29.2386ZM481.512 32.6903L480.712 32.0903L480.705 32.1003L481.512 32.6903ZM479.893 37.7188L480.892 37.7551L480.893 37.7369V37.7188H479.893ZM480.873 41.8097L480.019 42.3303L480.024 42.3378L480.028 42.3452L480.873 41.8097ZM483.898 44.8352L483.344 45.6673L483.35 45.6716L483.357 45.6758L483.898 44.8352ZM488.33 47.0085L487.981 47.9455L487.988 47.9481L487.995 47.9506L488.33 47.0085ZM493.7 48.5426L493.932 47.57L493.925 47.5683L493.918 47.5668L493.7 48.5426ZM501.54 50.4176L501.308 51.3902L501.315 51.3919L501.322 51.3935L501.54 50.4176ZM512.023 53.8267L511.616 54.7398L512.023 53.8267ZM520.29 59.0682L520.955 58.3213H520.955L520.29 59.0682ZM525.702 66.3977L524.792 66.8115L524.796 66.8191L525.702 66.3977ZM527.705 76.071L528.705 76.0763L528.705 76.0632L527.705 76.071ZM523.614 89.9631L522.791 89.396L522.79 89.3973L523.614 89.9631ZM512.023 99.0398L512.414 99.9605L512.416 99.9594L512.023 99.0398ZM475.418 98.9972L475.035 99.9207L475.037 99.9214L475.418 98.9972ZM463.231 89.4091L462.404 89.9714L462.408 89.9777L463.231 89.4091ZM458.671 73.5994V72.5994H457.648L457.671 73.622L458.671 73.5994ZM476.526 73.5994L477.524 73.5316L477.461 72.5994H476.526V73.5994ZM479.04 80.929L478.242 81.5308L478.247 81.5373L478.252 81.5437L479.04 80.929ZM485.049 85.3182L484.679 86.2475L484.692 86.2523L485.049 85.3182ZM501.754 85.4034L501.39 84.4718L501.386 84.4734L501.754 85.4034ZM507.165 81.6108L507.95 82.2304L507.165 81.6108ZM507.336 71.0852L506.574 71.7334L506.582 71.7426L507.336 71.0852ZM502.308 67.6761L501.914 68.5953L501.918 68.5971L502.308 67.6761ZM494.254 65.1193L494.01 66.0892L494.019 66.0915L494.254 65.1193ZM484.751 62.733L484.994 61.763L484.987 61.7613L484.751 62.733ZM467.322 54.3381L466.656 55.0838L467.322 54.3381ZM460.972 38.9545L461.972 38.9589L461.972 38.9492L460.972 38.9545ZM465.191 25.1051L464.382 24.5173L464.379 24.5211L465.191 25.1051ZM511.001 15.858L510.584 16.7669L510.586 16.7678L511.001 15.858ZM522.336 25.1051L521.51 25.6694L522.336 25.1051ZM526.512 38.8267V39.8267H527.529L527.512 38.8103L526.512 38.8267ZM509.823 38.728C509.456 35.0327 507.863 32.0952 505.031 30.0101L503.845 31.6206C506.184 33.3423 507.517 35.7457 507.832 38.9254L509.823 38.728ZM505.031 30.0101C502.22 27.94 498.478 26.9602 493.913 26.9602V28.9602C498.211 28.9602 501.486 29.8838 503.845 31.6206L505.031 30.0101ZM493.913 26.9602C490.813 26.9602 488.133 27.398 485.905 28.3137L486.665 30.1636C488.585 29.3747 490.99 28.9602 493.913 28.9602V26.9602ZM485.916 28.3093C483.706 29.1869 481.952 30.4376 480.712 32.0903L482.312 33.2903C483.288 31.9885 484.715 30.9381 486.654 30.168L485.916 28.3093ZM480.705 32.1003C479.497 33.7534 478.893 35.6373 478.893 37.7188H480.893C480.893 36.0502 481.368 34.5819 482.319 33.2804L480.705 32.1003ZM478.893 37.6824C478.831 39.4114 479.192 40.9746 480.019 42.3303L481.727 41.2891C481.133 40.3151 480.841 39.1511 480.892 37.7551L478.893 37.6824ZM480.028 42.3452C480.85 43.6408 481.962 44.7464 483.344 45.6673L484.453 44.0032C483.278 43.2195 482.373 42.3081 481.717 41.2741L480.028 42.3452ZM483.357 45.6758C484.705 46.5447 486.249 47.2996 487.981 47.9455L488.68 46.0715C487.059 45.4674 485.649 44.7735 484.44 43.9947L483.357 45.6758ZM487.995 47.9506C489.713 48.562 491.542 49.0843 493.481 49.5185L493.918 47.5668C492.051 47.1487 490.3 46.6482 488.666 46.0664L487.995 47.9506ZM493.467 49.5152L501.308 51.3902L501.773 49.445L493.932 47.57L493.467 49.5152ZM501.322 51.3935C505.071 52.2329 508.502 53.3495 511.616 54.7398L512.431 52.9136C509.182 51.463 505.623 50.3069 501.759 49.4418L501.322 51.3935ZM511.616 54.7398C514.715 56.1233 517.381 57.817 519.626 59.8151L520.955 58.3213C518.541 56.1716 515.696 54.371 512.431 52.9136L511.616 54.7398ZM519.626 59.8151C521.852 61.7971 523.572 64.1272 524.792 66.8115L526.613 65.9839C525.276 63.0433 523.388 60.4869 520.955 58.3213L519.626 59.8151ZM524.796 66.8191C526.033 69.4815 526.678 72.561 526.705 76.0788L528.705 76.0632C528.676 72.3084 527.986 68.9389 526.609 65.9763L524.796 66.8191ZM526.705 76.0657C526.678 81.2314 525.362 85.6607 522.791 89.396L524.438 90.5301C527.264 86.4246 528.676 81.5925 528.705 76.0763L526.705 76.0657ZM522.79 89.3973C520.243 93.1084 516.542 96.023 511.631 98.1201L512.416 99.9594C517.618 97.7383 521.644 94.6019 524.439 90.5288L522.79 89.3973ZM511.633 98.119C506.759 100.184 500.834 101.236 493.827 101.236V103.236C501.025 103.236 507.231 102.157 512.414 99.9605L511.633 98.119ZM493.827 101.236C486.882 101.236 480.881 100.171 475.8 98.0729L475.037 99.9214C480.411 102.141 486.682 103.236 493.827 103.236V101.236ZM475.802 98.0736C470.763 95.981 466.86 92.9007 464.053 88.8405L462.408 89.9777C465.454 94.3834 469.676 97.6951 475.035 99.9207L475.802 98.0736ZM464.058 88.8468C461.29 84.7767 459.81 79.7049 459.671 73.5768L457.671 73.622C457.817 80.0508 459.376 85.5188 462.404 89.9714L464.058 88.8468ZM458.671 74.5994H476.526V72.5994H458.671V74.5994ZM475.529 73.6672C475.738 76.7487 476.627 79.3876 478.242 81.5308L479.839 80.3271C478.5 78.5498 477.712 76.3025 477.524 73.5316L475.529 73.6672ZM478.252 81.5437C479.877 83.6293 482.031 85.194 484.679 86.2474L485.419 84.389C483.067 83.4537 481.215 82.0923 479.829 80.3142L478.252 81.5437ZM484.692 86.2523C487.353 87.2687 490.332 87.767 493.614 87.767V85.767C490.534 85.767 487.802 85.2995 485.406 84.384L484.692 86.2523ZM493.614 87.767C496.833 87.767 499.677 87.2992 502.121 86.3335L501.386 84.4734C499.228 85.3258 496.645 85.767 493.614 85.767V87.767ZM502.117 86.335C504.577 85.3749 506.541 84.0162 507.95 82.2304L506.381 80.9911C505.234 82.444 503.589 83.6137 501.39 84.4718L502.117 86.335ZM507.95 82.2304C509.371 80.431 510.083 78.3509 510.083 76.0284H508.083C508.083 77.9104 507.517 79.5519 506.381 80.9911L507.95 82.2304ZM510.083 76.0284C510.083 73.8541 509.43 71.965 508.089 70.4279L506.582 71.7426C507.571 72.8759 508.083 74.2823 508.083 76.0284H510.083ZM508.097 70.4371C506.83 68.9474 505.006 67.732 502.697 66.7552L501.918 68.5971C504.041 69.4953 505.569 70.5526 506.574 71.7333L508.097 70.4371ZM502.701 66.757C500.447 65.7909 497.706 64.9229 494.488 64.1472L494.019 66.0915C497.165 66.8499 499.793 67.6864 501.914 68.5953L502.701 66.757ZM494.497 64.1494L484.994 61.7631L484.507 63.7028L494.01 66.0892L494.497 64.1494ZM484.987 61.7613C477.739 59.9982 472.093 57.2598 467.988 53.5923L466.656 55.0838C471.073 59.0299 477.047 61.8882 484.514 63.7046L484.987 61.7613ZM467.988 53.5923C463.969 50.0019 461.945 45.1625 461.972 38.9589L459.972 38.9501C459.943 45.6443 462.152 51.0606 466.656 55.0838L467.988 53.5923ZM461.972 38.9492C461.945 33.8572 463.296 29.4514 466.003 25.6891L464.379 24.5211C461.404 28.6566 459.943 33.4837 459.972 38.9599L461.972 38.9492ZM466 25.6929C468.754 21.9031 472.541 18.9255 477.4 16.7722L476.59 14.9437C471.449 17.2222 467.367 20.4094 464.382 24.5173L466 25.6929ZM477.4 16.7722C482.253 14.6213 487.794 13.5341 494.04 13.5341V11.5341C487.56 11.5341 481.737 12.6628 476.59 14.9437L477.4 16.7722ZM494.04 13.5341C500.405 13.5341 505.91 14.6226 510.584 16.7668L511.418 14.9491C506.432 12.6615 500.631 11.5341 494.04 11.5341V13.5341ZM510.586 16.7678C515.298 18.9171 518.926 21.888 521.51 25.6694L523.162 24.5409C520.348 20.4245 516.42 17.2306 511.416 14.9481L510.586 16.7678ZM521.51 25.6694C524.089 29.4425 525.43 33.8222 525.512 38.8431L527.512 38.8103C527.424 33.4335 525.98 28.6654 523.162 24.5409L521.51 25.6694ZM526.512 37.8267H508.827V39.8267H526.512V37.8267ZM536.793 28.9403H535.793V29.9403H536.793V28.9403ZM536.793 13.7273V12.7273H535.793V13.7273H536.793ZM608.469 13.7273H609.469V12.7273H608.469V13.7273ZM608.469 28.9403V29.9403H609.469V28.9403H608.469ZM581.75 28.9403V27.9403H580.75V28.9403H581.75ZM581.75 101V102H582.75V101H581.75ZM563.511 101H562.511V102H563.511V101ZM563.511 28.9403H564.511V27.9403H563.511V28.9403ZM537.793 28.9403V13.7273H535.793V28.9403H537.793ZM536.793 14.7273H608.469V12.7273H536.793V14.7273ZM607.469 13.7273V28.9403H609.469V13.7273H607.469ZM608.469 27.9403H581.75V29.9403H608.469V27.9403ZM580.75 28.9403V101H582.75V28.9403H580.75ZM581.75 100H563.511V102H581.75V100ZM564.511 101V28.9403H562.511V101H564.511ZM563.511 27.9403H536.793V29.9403H563.511V27.9403ZM620.273 101H619.273V102H620.273V101ZM620.273 13.7273V12.7273H619.273V13.7273H620.273ZM679.08 13.7273H680.08V12.7273H679.08V13.7273ZM679.08 28.9403V29.9403H680.08V28.9403H679.08ZM638.724 28.9403V27.9403H637.724V28.9403H638.724ZM638.724 49.7358H637.724V50.7358H638.724V49.7358ZM676.054 49.7358H677.054V48.7358H676.054V49.7358ZM676.054 64.9489V65.9489H677.054V64.9489H676.054ZM638.724 64.9489V63.9489H637.724V64.9489H638.724ZM638.724 85.7869H637.724V86.7869H638.724V85.7869ZM679.25 85.7869H680.25V84.7869H679.25V85.7869ZM679.25 101V102H680.25V101H679.25ZM621.273 101V13.7273H619.273V101H621.273ZM620.273 14.7273H679.08V12.7273H620.273V14.7273ZM678.08 13.7273V28.9403H680.08V13.7273H678.08ZM679.08 27.9403H638.724V29.9403H679.08V27.9403ZM637.724 28.9403V49.7358H639.724V28.9403H637.724ZM638.724 50.7358H676.054V48.7358H638.724V50.7358ZM675.054 49.7358V64.9489H677.054V49.7358H675.054ZM676.054 63.9489H638.724V65.9489H676.054V63.9489ZM637.724 64.9489V85.7869H639.724V64.9489H637.724ZM638.724 86.7869H679.25V84.7869H638.724V86.7869ZM678.25 85.7869V101H680.25V85.7869H678.25ZM679.25 100H620.273V102H679.25V100ZM712.201 13.7273H713.201V12.7273H712.201V13.7273ZM712.201 101V102H713.201V101H712.201ZM693.749 101H692.749V102H693.749V101ZM693.749 13.7273V12.7273H692.749V13.7273H693.749ZM711.201 13.7273V101H713.201V13.7273H711.201ZM712.201 100H693.749V102H712.201V100ZM694.749 101V13.7273H692.749V101H694.749ZM693.749 14.7273H712.201V12.7273H693.749V14.7273ZM800.379 13.7273H801.379V12.7273H800.379V13.7273ZM800.379 101V102H801.379V101H800.379ZM784.442 101L783.619 101.569L783.917 102H784.442V101ZM746.473 46.071L747.296 45.5024L746.997 45.071H746.473V46.071ZM745.834 46.071V45.071H744.834V46.071H745.834ZM745.834 101V102H746.834V101H745.834ZM727.382 101H726.382V102H727.382V101ZM727.382 13.7273V12.7273H726.382V13.7273H727.382ZM743.575 13.7273L744.4 13.1614L744.102 12.7273H743.575V13.7273ZM781.246 68.6136L780.421 69.1795L780.719 69.6136H781.246V68.6136ZM782.013 68.6136V69.6136H783.013V68.6136H782.013ZM782.013 13.7273V12.7273H781.013V13.7273H782.013ZM799.379 13.7273V101H801.379V13.7273H799.379ZM800.379 100H784.442V102H800.379V100ZM785.264 100.431L747.296 45.5024L745.65 46.6396L783.619 101.569L785.264 100.431ZM746.473 45.071H745.834V47.071H746.473V45.071ZM744.834 46.071V101H746.834V46.071H744.834ZM745.834 100H727.382V102H745.834V100ZM728.382 101V13.7273H726.382V101H728.382ZM727.382 14.7273H743.575V12.7273H727.382V14.7273ZM742.751 14.2931L780.421 69.1795L782.07 68.0478L744.4 13.1614L742.751 14.2931ZM781.246 69.6136H782.013V67.6136H781.246V69.6136ZM783.013 68.6136V13.7273H781.013V68.6136H783.013ZM782.013 14.7273H800.379V12.7273H782.013V14.7273ZM818.65 99.125L817.938 99.8271L817.943 99.8321L817.948 99.8371L818.65 99.125ZM818.65 84.7216L817.948 84.0095L817.943 84.0145L818.65 84.7216ZM833.053 84.7216L832.356 85.4386L833.053 84.7216ZM834.673 97.0369L833.822 96.5111L833.819 96.5155L834.673 97.0369ZM830.965 100.744L831.475 101.605L831.487 101.598L830.965 100.744ZM825.894 101.108C823.347 101.108 821.183 100.219 819.352 98.4129L817.948 99.8371C820.15 102.009 822.817 103.108 825.894 103.108V101.108ZM819.362 98.4229C817.556 96.5915 816.667 94.4283 816.667 91.8807H814.667C814.667 94.958 815.766 97.6244 817.938 99.8271L819.362 98.4229ZM816.667 91.8807C816.667 89.3648 817.554 87.2319 819.357 85.4287L817.943 84.0145C815.769 86.1885 814.667 88.8284 814.667 91.8807H816.667ZM819.352 85.4337C821.183 83.6281 823.347 82.7386 825.894 82.7386V80.7386C822.817 80.7386 820.15 81.8378 817.948 84.0095L819.352 85.4337ZM825.894 82.7386C828.348 82.7386 830.488 83.6222 832.356 85.4386L833.75 84.0046C831.528 81.8438 828.895 80.7386 825.894 80.7386V82.7386ZM832.356 85.4386C834.213 87.2442 835.121 89.3741 835.121 91.8807H837.121C837.121 88.8191 835.984 86.1763 833.75 84.0046L832.356 85.4386ZM835.121 91.8807C835.121 93.574 834.688 95.11 833.822 96.5111L835.523 97.5628C836.589 95.8388 837.121 93.9374 837.121 91.8807H835.121ZM833.819 96.5155C832.965 97.9142 831.842 99.0363 830.444 99.891L831.487 101.598C833.156 100.577 834.506 99.2278 835.526 97.5584L833.819 96.5155ZM830.455 99.884C829.081 100.698 827.568 101.108 825.894 101.108V103.108C827.914 103.108 829.781 102.608 831.475 101.605L830.455 99.884ZM976.347 0.559999V-0.440001H975.347V0.559999H976.347ZM992.427 0.559999H993.427V-0.440001H992.427V0.559999ZM992.427 56.12V57.12H993.427V56.12H992.427ZM976.347 56.12H975.347V57.12H976.347V56.12ZM918.267 60.68V59.68H917.267V60.68H918.267ZM992.427 60.68H993.427V59.68H992.427V60.68ZM992.427 91.16V92.16H993.427V91.16H992.427ZM934.107 91.16V90.16H933.107V91.16H934.107ZM934.107 104.6V105.6H935.107V104.6H934.107ZM918.507 104.6H917.507V105.6H918.507V104.6ZM918.507 79.64V78.64H917.507V79.64H918.507ZM976.587 79.64V80.64H977.587V79.64H976.587ZM976.587 73.04H977.587V72.04H976.587V73.04ZM918.267 73.04H917.267V74.04H918.267V73.04ZM918.507 98.12V97.12H917.507V98.12H918.507ZM995.187 98.12H996.187V97.12H995.187V98.12ZM995.187 110.48V111.48H996.187V110.48H995.187ZM918.507 110.48H917.507V111.48H918.507V110.48ZM931.347 4.79999C947.873 4.79999 959.987 15.0586 959.987 29.24H961.987C961.987 13.6613 948.66 2.79999 931.347 2.79999V4.79999ZM959.987 29.24C959.987 43.2985 947.876 53.56 931.347 53.56V55.56C948.657 55.56 961.987 44.7015 961.987 29.24H959.987ZM931.347 53.56C914.817 53.56 902.707 43.2985 902.707 29.24H900.707C900.707 44.7015 914.036 55.56 931.347 55.56V53.56ZM902.707 29.24C902.707 15.0586 914.82 4.79999 931.347 4.79999V2.79999C914.033 2.79999 900.707 13.6613 900.707 29.24H902.707ZM931.347 15.76C927.089 15.76 923.275 16.9496 920.505 19.2625C917.716 21.5923 916.067 24.9992 916.067 29.24H918.067C918.067 25.5608 919.477 22.7277 921.788 20.7975C924.119 18.8504 927.444 17.76 931.347 17.76V15.76ZM916.067 29.24C916.067 33.4808 917.716 36.8877 920.505 39.2175C923.275 41.5304 927.089 42.72 931.347 42.72V40.72C927.444 40.72 924.119 39.6296 921.788 37.6825C919.477 35.7523 918.067 32.9192 918.067 29.24H916.067ZM931.347 42.72C935.605 42.72 939.392 41.5301 942.132 39.2137C944.892 36.881 946.507 33.474 946.507 29.24H944.507C944.507 32.926 943.121 35.759 940.841 37.6863C938.542 39.6299 935.249 40.72 931.347 40.72V42.72ZM946.507 29.24C946.507 25.006 944.892 21.599 942.132 19.2663C939.392 16.9499 935.605 15.76 931.347 15.76V17.76C935.249 17.76 938.542 18.8501 940.841 20.7937C943.121 22.721 944.507 25.554 944.507 29.24H946.507ZM976.347 1.56H992.427V-0.440001H976.347V1.56ZM991.427 0.559999V56.12H993.427V0.559999H991.427ZM992.427 55.12H976.347V57.12H992.427V55.12ZM977.347 56.12V0.559999H975.347V56.12H977.347ZM918.267 61.68H992.427V59.68H918.267V61.68ZM991.427 60.68V91.16H993.427V60.68H991.427ZM992.427 90.16H934.107V92.16H992.427V90.16ZM933.107 91.16V104.6H935.107V91.16H933.107ZM934.107 103.6H918.507V105.6H934.107V103.6ZM919.507 104.6V79.64H917.507V104.6H919.507ZM918.507 80.64H976.587V78.64H918.507V80.64ZM977.587 79.64V73.04H975.587V79.64H977.587ZM976.587 72.04H918.267V74.04H976.587V72.04ZM919.267 73.04V60.68H917.267V73.04H919.267ZM918.507 99.12H995.187V97.12H918.507V99.12ZM994.187 98.12V110.48H996.187V98.12H994.187ZM995.187 109.48H918.507V111.48H995.187V109.48ZM919.507 110.48V98.12H917.507V110.48H919.507ZM1034.78 6.55999V5.55999H1033.78V6.55999H1034.78ZM1047.86 6.55999H1048.86V5.55999H1047.86V6.55999ZM1017.14 65.24L1016.31 65.8001L1016.74 66.4364L1017.46 66.1849L1017.14 65.24ZM1008.62 52.64L1008.3 51.6919L1007.05 52.1104L1007.79 53.2001L1008.62 52.64ZM1038.02 6.55999V5.55999H1037.02V6.55999H1038.02ZM1050.98 6.55999H1051.98V5.55999H1050.98V6.55999ZM1075.82 49.64L1076.65 50.1966L1077.39 49.0824L1076.11 48.6849L1075.82 49.64ZM1067.54 62L1067.22 62.9481L1067.94 63.1908L1068.37 62.5566L1067.54 62ZM1081.94 0.559999V-0.440001H1080.94V0.559999H1081.94ZM1097.9 0.559999H1098.9V-0.440001H1097.9V0.559999ZM1097.9 66.2V67.2H1098.9V66.2H1097.9ZM1081.94 66.2H1080.94V67.2H1081.94V66.2ZM1093.46 26.24V25.24H1092.46V26.24H1093.46ZM1112.66 26.24H1113.66V25.24H1112.66V26.24ZM1112.66 39.44V40.44H1113.66V39.44H1112.66ZM1093.46 39.44H1092.46V40.44H1093.46V39.44ZM1034.78 7.55999H1047.86V5.55999H1034.78V7.55999ZM1046.86 6.55999V16.4H1048.86V6.55999H1046.86ZM1046.86 16.4C1046.86 38.2015 1037.4 57.1575 1016.81 64.2951L1017.46 66.1849C1039.11 58.6825 1048.86 38.7585 1048.86 16.4H1046.86ZM1017.97 64.6798L1009.45 52.0798L1007.79 53.2001L1016.31 65.8001L1017.97 64.6798ZM1008.94 53.5881C1028 47.1909 1035.78 31.8814 1035.78 16.4H1033.78C1033.78 31.1586 1026.43 45.6091 1008.3 51.6919L1008.94 53.5881ZM1035.78 16.4V6.55999H1033.78V16.4H1035.78ZM1038.02 7.55999H1050.98V5.55999H1038.02V7.55999ZM1049.98 6.55999V17.96H1051.98V6.55999H1049.98ZM1049.98 17.96C1049.98 31.7033 1057.69 45.0609 1075.52 50.5951L1076.11 48.6849C1059.15 43.4191 1051.98 30.8567 1051.98 17.96H1049.98ZM1074.99 49.0834L1066.71 61.4434L1068.37 62.5566L1076.65 50.1966L1074.99 49.0834ZM1067.86 61.0519C1048.31 54.4972 1039.02 37.6678 1039.02 17.96H1037.02C1037.02 38.3322 1046.69 56.0628 1067.22 62.9481L1067.86 61.0519ZM1039.02 17.96V6.55999H1037.02V17.96H1039.02ZM1081.94 1.56H1097.9V-0.440001H1081.94V1.56ZM1096.9 0.559999V66.2H1098.9V0.559999H1096.9ZM1097.9 65.2H1081.94V67.2H1097.9V65.2ZM1082.94 66.2V0.559999H1080.94V66.2H1082.94ZM1093.46 27.24H1112.66V25.24H1093.46V27.24ZM1111.66 26.24V39.44H1113.66V26.24H1111.66ZM1112.66 38.44H1093.46V40.44H1112.66V38.44ZM1094.46 39.44V26.24H1092.46V39.44H1094.46ZM1061.66 69.72C1073.08 69.72 1082.28 71.7167 1088.58 75.29C1094.85 78.8417 1098.22 83.9133 1098.22 90.2H1100.22C1100.22 83.0467 1096.32 77.3783 1089.57 73.55C1082.85 69.7433 1073.27 67.72 1061.66 67.72V69.72ZM1098.22 90.2C1098.22 96.5486 1094.85 101.619 1088.59 105.154C1082.28 108.713 1073.08 110.68 1061.66 110.68V112.68C1073.27 112.68 1082.85 110.687 1089.57 106.896C1096.33 103.081 1100.22 97.4114 1100.22 90.2H1098.22ZM1061.66 110.68C1050.17 110.68 1040.94 108.712 1034.62 105.154C1028.35 101.618 1024.98 96.5483 1024.98 90.2H1022.98C1022.98 97.4117 1026.87 103.082 1033.64 106.896C1040.37 110.688 1049.99 112.68 1061.66 112.68V110.68ZM1024.98 90.2C1024.98 83.9137 1028.34 78.8423 1034.62 75.2905C1040.94 71.7169 1050.17 69.72 1061.66 69.72V67.72C1049.98 67.72 1040.37 69.743 1033.64 73.5495C1026.87 77.3777 1022.98 83.0463 1022.98 90.2H1024.98ZM1061.66 80.08C1054.53 80.08 1048.92 80.8304 1045.05 82.4199C1043.1 83.2181 1041.54 84.2499 1040.47 85.5571C1039.38 86.881 1038.82 88.4418 1038.82 90.2H1040.82C1040.82 88.8982 1041.22 87.789 1042.01 86.8292C1042.82 85.8526 1044.06 84.9869 1045.81 84.2701C1049.32 82.8296 1054.62 82.08 1061.66 82.08V80.08ZM1038.82 90.2C1038.82 91.9836 1039.37 93.5595 1040.47 94.8917C1041.54 96.2069 1043.11 97.2357 1045.05 98.0264C1048.92 99.6004 1054.54 100.32 1061.66 100.32V98.32C1054.62 98.32 1049.31 97.5996 1045.8 96.1736C1044.06 95.4643 1042.82 94.6031 1042.01 93.6233C1041.22 92.6605 1040.82 91.5364 1040.82 90.2H1038.82ZM1061.66 100.32C1068.77 100.32 1074.36 99.6005 1078.21 98.0253C1080.14 97.2337 1081.68 96.2037 1082.75 94.8871C1083.83 93.5542 1084.38 91.9796 1084.38 90.2H1082.38C1082.38 91.5404 1081.98 92.6658 1081.2 93.6279C1080.4 94.6063 1079.18 95.4663 1077.45 96.1747C1073.97 97.5995 1068.7 98.32 1061.66 98.32V100.32ZM1084.38 90.2C1084.38 88.4459 1083.83 86.8865 1082.75 85.5616C1081.68 84.2532 1080.14 83.2201 1078.21 82.421C1074.37 80.8303 1068.78 80.08 1061.66 80.08V82.08C1068.7 82.08 1073.97 82.8297 1077.44 84.269C1079.17 84.9849 1080.41 85.8493 1081.2 86.8246C1081.98 87.7836 1082.38 88.8941 1082.38 90.2H1084.38ZM1165.21 41.48V40.48H1164.21V41.48H1165.21ZM1183.45 41.48H1184.45V40.48H1183.45V41.48ZM1183.45 54.32V55.32H1184.45V54.32H1183.45ZM1165.21 54.32H1164.21V55.32H1165.21V54.32ZM1201.09 0.559999V-0.440001H1200.09V0.559999H1201.09ZM1216.33 0.559999H1217.33V-0.440001H1216.33V0.559999ZM1216.33 111.68V112.68H1217.33V111.68H1216.33ZM1201.09 111.68H1200.09V112.68H1201.09V111.68ZM1178.41 2.24V1.24H1177.41V2.24H1178.41ZM1193.41 2.24H1194.41V1.24H1193.41V2.24ZM1193.41 106.64V107.64H1194.41V106.64H1193.41ZM1178.41 106.64H1177.41V107.64H1178.41V106.64ZM1165.21 42.48H1183.45V40.48H1165.21V42.48ZM1182.45 41.48V54.32H1184.45V41.48H1182.45ZM1183.45 53.32H1165.21V55.32H1183.45V53.32ZM1166.21 54.32V41.48H1164.21V54.32H1166.21ZM1201.09 1.56H1216.33V-0.440001H1201.09V1.56ZM1215.33 0.559999V111.68H1217.33V0.559999H1215.33ZM1216.33 110.68H1201.09V112.68H1216.33V110.68ZM1202.09 111.68V0.559999H1200.09V111.68H1202.09ZM1178.41 3.24H1193.41V1.24H1178.41V3.24ZM1192.41 2.24V106.64H1194.41V2.24H1192.41ZM1193.41 105.64H1178.41V107.64H1193.41V105.64ZM1179.41 106.64V2.24H1177.41V106.64H1179.41ZM1145.77 9.36C1152.74 9.36 1158.5 12.936 1162.57 19.6338C1166.66 26.368 1169.01 36.2466 1169.01 48.68H1171.01C1171.01 36.0334 1168.62 25.752 1164.28 18.5962C1159.91 11.404 1153.55 7.36 1145.77 7.36V9.36ZM1169.01 48.68C1169.01 61.1741 1166.65 71.0829 1162.57 77.832C1158.5 84.5443 1152.74 88.12 1145.77 88.12V90.12C1153.55 90.12 1159.91 86.0757 1164.28 78.868C1168.62 71.6971 1171.01 61.3859 1171.01 48.68H1169.01ZM1145.77 88.12C1138.86 88.12 1133.16 84.5489 1129.14 77.836C1125.09 71.0862 1122.77 61.176 1122.77 48.68H1120.77C1120.77 61.384 1123.12 71.6938 1127.42 78.864C1131.74 86.0711 1138.04 90.12 1145.77 90.12V88.12ZM1122.77 48.68C1122.77 36.2448 1125.09 26.3646 1129.14 19.6298C1133.16 12.9314 1138.86 9.36 1145.77 9.36V7.36C1138.04 7.36 1131.74 11.4086 1127.42 18.6002C1123.12 25.7554 1120.77 36.0352 1120.77 48.68H1122.77ZM1145.77 22.36C1142.16 22.36 1139.53 24.9299 1137.84 29.3162C1136.16 33.702 1135.29 40.177 1135.29 48.68H1137.29C1137.29 40.263 1138.16 34.078 1139.71 30.0338C1141.27 25.9901 1143.37 24.36 1145.77 24.36V22.36ZM1135.29 48.68C1135.29 57.242 1136.16 63.7181 1137.84 68.0899C1139.53 72.4677 1142.17 75 1145.77 75V73C1143.37 73 1141.26 71.3923 1139.71 67.3701C1138.16 63.3419 1137.29 57.1581 1137.29 48.68H1135.29ZM1145.77 75C1149.47 75 1152.17 72.4906 1153.9 68.0956C1155.62 63.7204 1156.49 57.2408 1156.49 48.68H1154.49C1154.49 57.1592 1153.62 63.3396 1152.04 67.3643C1150.46 71.3694 1148.31 73 1145.77 73V75ZM1156.49 48.68C1156.49 40.1782 1155.62 33.6997 1153.9 29.3105C1152.18 24.9068 1149.47 22.36 1145.77 22.36V24.36C1148.3 24.36 1150.46 26.0132 1152.04 30.0395C1153.62 34.0803 1154.49 40.2618 1154.49 48.68H1156.49ZM1258.97 57.68V56.68H1257.97V57.68H1258.97ZM1359.41 57.68H1360.41V56.68H1359.41V57.68ZM1359.41 70.4V71.4H1360.41V70.4H1359.41ZM1258.97 70.4H1257.97V71.4H1258.97V70.4ZM1301.09 42.08V41.08H1300.09V42.08H1301.09ZM1317.05 42.08H1318.05V41.08H1317.05V42.08ZM1317.05 63.44V64.44H1318.05V63.44H1317.05ZM1301.09 63.44H1300.09V64.44H1301.09V63.44ZM1271.09 97.04V96.04H1270.09V97.04H1271.09ZM1348.13 97.04H1349.13V96.04H1348.13V97.04ZM1348.13 109.76V110.76H1349.13V109.76H1348.13ZM1271.09 109.76H1270.09V110.76H1271.09V109.76ZM1271.09 77.48V76.48H1270.09V77.48H1271.09ZM1287.05 77.48H1288.05V76.48H1287.05V77.48ZM1287.05 101.36V102.36H1288.05V101.36H1287.05ZM1271.09 101.36H1270.09V102.36H1271.09V101.36ZM1258.97 58.68H1359.41V56.68H1258.97V58.68ZM1358.41 57.68V70.4H1360.41V57.68H1358.41ZM1359.41 69.4H1258.97V71.4H1359.41V69.4ZM1259.97 70.4V57.68H1257.97V70.4H1259.97ZM1301.09 43.08H1317.05V41.08H1301.09V43.08ZM1316.05 42.08V63.44H1318.05V42.08H1316.05ZM1317.05 62.44H1301.09V64.44H1317.05V62.44ZM1302.09 63.44V42.08H1300.09V63.44H1302.09ZM1271.09 98.04H1348.13V96.04H1271.09V98.04ZM1347.13 97.04V109.76H1349.13V97.04H1347.13ZM1348.13 108.76H1271.09V110.76H1348.13V108.76ZM1272.09 109.76V97.04H1270.09V109.76H1272.09ZM1271.09 78.48H1287.05V76.48H1271.09V78.48ZM1286.05 77.48V101.36H1288.05V77.48H1286.05ZM1287.05 100.36H1271.09V102.36H1287.05V100.36ZM1272.09 101.36V77.48H1270.09V101.36H1272.09ZM1309.25 4.32C1321.21 4.32 1331.07 6.52371 1337.9 10.3856C1344.72 14.2336 1348.45 19.6725 1348.45 26.24H1350.45C1350.45 18.7675 1346.15 12.7464 1338.89 8.64437C1331.65 4.55629 1321.42 2.32 1309.25 2.32V4.32ZM1348.45 26.24C1348.45 32.931 1344.71 38.3675 1337.91 42.1828C1331.07 46.0148 1321.21 48.16 1309.25 48.16V50.16C1321.41 50.16 1331.65 47.9852 1338.89 43.9272C1346.15 39.8525 1350.45 33.829 1350.45 26.24H1348.45ZM1309.25 48.16C1297.23 48.16 1287.37 46.0145 1280.55 42.1832C1273.77 38.3695 1270.05 32.9339 1270.05 26.24H1268.05C1268.05 33.8261 1272.32 39.8505 1279.57 43.9268C1286.79 47.9855 1297.03 50.16 1309.25 50.16V48.16ZM1270.05 26.24C1270.05 19.6696 1273.76 14.2316 1280.55 10.3852C1287.37 6.52399 1297.24 4.32 1309.25 4.32V2.32C1297.03 2.32 1286.79 4.55601 1279.57 8.64482C1272.32 12.7484 1268.05 18.7704 1268.05 26.24H1270.05ZM1309.25 15.04C1301.7 15.04 1295.6 15.9123 1291.36 17.6982C1287.09 19.4929 1284.49 22.3208 1284.49 26.24H1286.49C1286.49 23.4392 1288.27 21.1671 1292.13 19.5418C1296.02 17.9077 1301.8 17.04 1309.25 17.04V15.04ZM1284.49 26.24C1284.49 30.2155 1287.09 33.0459 1291.36 34.828C1295.61 36.5985 1301.7 37.44 1309.25 37.44V35.44C1301.8 35.44 1296.02 34.6015 1292.13 32.982C1288.28 31.3741 1286.49 29.1044 1286.49 26.24H1284.49ZM1309.25 37.44C1316.8 37.44 1322.9 36.5985 1327.14 34.828C1331.42 33.0459 1334.01 30.2155 1334.01 26.24H1332.01C1332.01 29.1044 1330.23 31.3741 1326.37 32.982C1322.49 34.6015 1316.7 35.44 1309.25 35.44V37.44ZM1334.01 26.24C1334.01 22.3208 1331.41 19.4929 1327.14 17.6982C1322.9 15.9123 1316.8 15.04 1309.25 15.04V17.04C1316.7 17.04 1322.48 17.9077 1326.37 19.5418C1330.23 21.1671 1332.01 23.4392 1332.01 26.24H1334.01ZM1445.92 0.559999V-0.440001H1444.92V0.559999H1445.92ZM1462 0.559999H1463V-0.440001H1462V0.559999ZM1462 111.68V112.68H1463V111.68H1462ZM1445.92 111.68H1444.92V112.68H1445.92V111.68ZM1413.16 12.08V11.08H1412.16V12.08H1413.16ZM1429 12.08H1430V11.08H1429V12.08ZM1378 92.96L1377.16 93.5055L1377.64 94.2435L1378.44 93.8604L1378 92.96ZM1369.72 80.24L1369.29 79.3389L1368.26 79.8322L1368.88 80.7855L1369.72 80.24ZM1375.6 12.08V11.08H1374.6V12.08H1375.6ZM1420.72 12.08H1421.72V11.08H1420.72V12.08ZM1420.72 24.68V25.68H1421.72V24.68H1420.72ZM1375.6 24.68H1374.6V25.68H1375.6V24.68ZM1445.92 1.56H1462V-0.440001H1445.92V1.56ZM1461 0.559999V111.68H1463V0.559999H1461ZM1462 110.68H1445.92V112.68H1462V110.68ZM1446.92 111.68V0.559999H1444.92V111.68H1446.92ZM1413.16 13.08H1429V11.08H1413.16V13.08ZM1428 12.08C1428 28.9501 1425.14 44.211 1417.44 57.6015C1409.74 70.9838 1397.16 82.5887 1377.57 92.0596L1378.44 93.8604C1398.32 84.2513 1411.24 72.3962 1419.17 58.5985C1427.1 44.809 1430 29.1699 1430 12.08H1428ZM1378.84 92.4145L1370.56 79.6945L1368.88 80.7855L1377.16 93.5055L1378.84 92.4145ZM1370.16 81.1411C1386.23 73.4085 1397.25 64.4222 1404.25 53.541C1411.26 42.6553 1414.16 29.9712 1414.16 14.96H1412.16C1412.16 29.7088 1409.31 41.9847 1402.57 52.459C1395.83 62.9378 1385.14 71.7115 1369.29 79.3389L1370.16 81.1411ZM1414.16 14.96V12.08H1412.16V14.96H1414.16ZM1375.6 13.08H1420.72V11.08H1375.6V13.08ZM1419.72 12.08V24.68H1421.72V12.08H1419.72ZM1420.72 23.68H1375.6V25.68H1420.72V23.68ZM1376.6 24.68V12.08H1374.6V24.68H1376.6ZM1479.75 50.36V49.36H1478.75V50.36H1479.75ZM1580.43 50.36H1581.43V49.36H1580.43V50.36ZM1580.43 62V63H1581.43V62H1580.43ZM1479.75 62H1478.75V63H1479.75V62ZM1491.03 67.52V66.52H1490.03V67.52H1491.03ZM1568.43 67.52H1569.43V66.52H1568.43V67.52ZM1568.43 93.92V94.92H1569.43V93.92H1568.43ZM1507.11 93.92V92.92H1506.11V93.92H1507.11ZM1507.11 103.4V104.4H1508.11V103.4H1507.11ZM1491.27 103.4H1490.27V104.4H1491.27V103.4ZM1491.27 83.84V82.84H1490.27V83.84H1491.27ZM1552.71 83.84V84.84H1553.71V83.84H1552.71ZM1552.71 78.32H1553.71V77.32H1552.71V78.32ZM1491.03 78.32H1490.03V79.32H1491.03V78.32ZM1491.27 100.04V99.04H1490.27V100.04H1491.27ZM1571.55 100.04H1572.55V99.04H1571.55V100.04ZM1571.55 110.84V111.84H1572.55V110.84H1571.55ZM1491.27 110.84H1490.27V111.84H1491.27V110.84ZM1492.11 2.48V1.48H1491.11V2.48H1492.11ZM1568.19 2.48H1569.19V1.48H1568.19V2.48ZM1568.19 28.64V29.64H1569.19V28.64H1568.19ZM1508.07 28.64V27.64H1507.07V28.64H1508.07ZM1508.07 37.76V38.76H1509.07V37.76H1508.07ZM1492.23 37.76H1491.23V38.76H1492.23V37.76ZM1492.23 18.68V17.68H1491.23V18.68H1492.23ZM1552.47 18.68V19.68H1553.47V18.68H1552.47ZM1552.47 13.16H1553.47V12.16H1552.47V13.16ZM1492.11 13.16H1491.11V14.16H1492.11V13.16ZM1492.23 34.4V33.4H1491.23V34.4H1492.23ZM1570.23 34.4H1571.23V33.4H1570.23V34.4ZM1570.23 45.2V46.2H1571.23V45.2H1570.23ZM1492.23 45.2H1491.23V46.2H1492.23V45.2ZM1479.75 51.36H1580.43V49.36H1479.75V51.36ZM1579.43 50.36V62H1581.43V50.36H1579.43ZM1580.43 61H1479.75V63H1580.43V61ZM1480.75 62V50.36H1478.75V62H1480.75ZM1491.03 68.52H1568.43V66.52H1491.03V68.52ZM1567.43 67.52V93.92H1569.43V67.52H1567.43ZM1568.43 92.92H1507.11V94.92H1568.43V92.92ZM1506.11 93.92V103.4H1508.11V93.92H1506.11ZM1507.11 102.4H1491.27V104.4H1507.11V102.4ZM1492.27 103.4V83.84H1490.27V103.4H1492.27ZM1491.27 84.84H1552.71V82.84H1491.27V84.84ZM1553.71 83.84V78.32H1551.71V83.84H1553.71ZM1552.71 77.32H1491.03V79.32H1552.71V77.32ZM1492.03 78.32V67.52H1490.03V78.32H1492.03ZM1491.27 101.04H1571.55V99.04H1491.27V101.04ZM1570.55 100.04V110.84H1572.55V100.04H1570.55ZM1571.55 109.84H1491.27V111.84H1571.55V109.84ZM1492.27 110.84V100.04H1490.27V110.84H1492.27ZM1492.11 3.48H1568.19V1.48H1492.11V3.48ZM1567.19 2.48V28.64H1569.19V2.48H1567.19ZM1568.19 27.64H1508.07V29.64H1568.19V27.64ZM1507.07 28.64V37.76H1509.07V28.64H1507.07ZM1508.07 36.76H1492.23V38.76H1508.07V36.76ZM1493.23 37.76V18.68H1491.23V37.76H1493.23ZM1492.23 19.68H1552.47V17.68H1492.23V19.68ZM1553.47 18.68V13.16H1551.47V18.68H1553.47ZM1552.47 12.16H1492.11V14.16H1552.47V12.16ZM1493.11 13.16V2.48H1491.11V13.16H1493.11ZM1492.23 35.4H1570.23V33.4H1492.23V35.4ZM1569.23 34.4V45.2H1571.23V34.4H1569.23ZM1570.23 44.2H1492.23V46.2H1570.23V44.2ZM1493.23 45.2V34.4H1491.23V45.2H1493.23ZM1623.2 72.08V71.08H1622.2V72.08H1623.2ZM1679.12 68.96L1680.11 68.8394L1679.98 67.7848L1678.94 67.9764L1679.12 68.96ZM1680.68 81.8L1680.86 82.7832L1681.78 82.6119L1681.67 81.6794L1680.68 81.8ZM1623.2 85.16H1622.2V86.16H1623.2V85.16ZM1623.2 10.4V9.39999H1622.2V10.4H1623.2ZM1673.48 10.4H1674.48V9.39999H1673.48V10.4ZM1673.48 23.12V24.12H1674.48V23.12H1673.48ZM1639.16 23.12V22.12H1638.16V23.12H1639.16ZM1639.16 77V78H1640.16V77H1639.16ZM1623.2 77H1622.2V78H1623.2V77ZM1695.32 0.559999V-0.440001H1694.32V0.559999H1695.32ZM1711.28 0.559999H1712.28V-0.440001H1711.28V0.559999ZM1711.28 112.04V113.04H1712.28V112.04H1711.28ZM1695.32 112.04H1694.32V113.04H1695.32V112.04ZM1668.08 38.84V37.84H1667.08V38.84H1668.08ZM1702.04 38.84H1703.04V37.84H1702.04V38.84ZM1702.04 51.8V52.8H1703.04V51.8H1702.04ZM1668.08 51.8H1667.08V52.8H1668.08V51.8ZM1623.2 73.08H1632.2V71.08H1623.2V73.08ZM1632.2 73.08C1651.89 73.08 1664.8 72.6006 1679.3 69.9436L1678.94 67.9764C1664.63 70.5994 1651.86 71.08 1632.2 71.08V73.08ZM1678.12 69.0806L1679.68 81.9206L1681.67 81.6794L1680.11 68.8394L1678.12 69.0806ZM1680.49 80.8168C1665.71 83.5599 1652.46 84.16 1632.2 84.16V86.16C1652.5 86.16 1665.89 85.5601 1680.86 82.7832L1680.49 80.8168ZM1632.2 84.16H1623.2V86.16H1632.2V84.16ZM1624.2 85.16V72.08H1622.2V85.16H1624.2ZM1623.2 11.4H1673.48V9.39999H1623.2V11.4ZM1672.48 10.4V23.12H1674.48V10.4H1672.48ZM1673.48 22.12H1639.16V24.12H1673.48V22.12ZM1638.16 23.12V77H1640.16V23.12H1638.16ZM1639.16 76H1623.2V78H1639.16V76ZM1624.2 77V10.4H1622.2V77H1624.2ZM1695.32 1.56H1711.28V-0.440001H1695.32V1.56ZM1710.28 0.559999V112.04H1712.28V0.559999H1710.28ZM1711.28 111.04H1695.32V113.04H1711.28V111.04ZM1696.32 112.04V0.559999H1694.32V112.04H1696.32ZM1668.08 39.84H1702.04V37.84H1668.08V39.84ZM1701.04 38.84V51.8H1703.04V38.84H1701.04ZM1702.04 50.8H1668.08V52.8H1702.04V50.8ZM1669.08 51.8V38.84H1667.08V51.8H1669.08ZM1799.59 0.559999V-0.440001H1798.59V0.559999H1799.59ZM1815.43 0.559999H1816.43V-0.440001H1815.43V0.559999ZM1815.43 111.68V112.68H1816.43V111.68H1815.43ZM1799.59 111.68H1798.59V112.68H1799.59V111.68ZM1811.83 43.88V42.88H1810.83V43.88H1811.83ZM1831.51 43.88H1832.51V42.88H1831.51V43.88ZM1831.51 57.2V58.2H1832.51V57.2H1831.51ZM1811.83 57.2H1810.83V58.2H1811.83V57.2ZM1727.83 17V16H1726.83V17H1727.83ZM1792.51 17H1793.51V16H1792.51V17ZM1792.51 29.72V30.72H1793.51V29.72H1792.51ZM1727.83 29.72H1726.83V30.72H1727.83V29.72ZM1752.31 2.36V1.36H1751.31V2.36H1752.31ZM1768.27 2.36H1769.27V1.36H1768.27V2.36ZM1768.27 21.8V22.8H1769.27V21.8H1768.27ZM1752.31 21.8H1751.31V22.8H1752.31V21.8ZM1799.59 1.56H1815.43V-0.440001H1799.59V1.56ZM1814.43 0.559999V111.68H1816.43V0.559999H1814.43ZM1815.43 110.68H1799.59V112.68H1815.43V110.68ZM1800.59 111.68V0.559999H1798.59V111.68H1800.59ZM1811.83 44.88H1831.51V42.88H1811.83V44.88ZM1830.51 43.88V57.2H1832.51V43.88H1830.51ZM1831.51 56.2H1811.83V58.2H1831.51V56.2ZM1812.83 57.2V43.88H1810.83V57.2H1812.83ZM1727.83 18H1792.51V16H1727.83V18ZM1791.51 17V29.72H1793.51V17H1791.51ZM1792.51 28.72H1727.83V30.72H1792.51V28.72ZM1728.83 29.72V17H1726.83V29.72H1728.83ZM1760.35 36.96C1776.06 36.96 1787.55 47.6152 1787.55 62.48H1789.55C1789.55 46.3848 1777.04 34.96 1760.35 34.96V36.96ZM1787.55 62.48C1787.55 77.3448 1776.06 88 1760.35 88V90C1777.04 90 1789.55 78.5752 1789.55 62.48H1787.55ZM1760.35 88C1744.64 88 1733.15 77.3448 1733.15 62.48H1731.15C1731.15 78.5752 1743.66 90 1760.35 90V88ZM1733.15 62.48C1733.15 47.6152 1744.64 36.96 1760.35 36.96V34.96C1743.66 34.96 1731.15 46.3848 1731.15 62.48H1733.15ZM1760.35 47.92C1756.34 47.92 1752.83 49.2597 1750.32 51.8025C1747.81 54.346 1746.39 58.0046 1746.39 62.48H1748.39C1748.39 58.4354 1749.67 55.314 1751.74 53.2075C1753.82 51.1003 1756.79 49.92 1760.35 49.92V47.92ZM1746.39 62.48C1746.39 66.9554 1747.81 70.614 1750.32 73.1575C1752.83 75.7003 1756.34 77.04 1760.35 77.04V75.04C1756.79 75.04 1753.82 73.8596 1751.74 71.7525C1749.67 69.646 1748.39 66.5246 1748.39 62.48H1746.39ZM1760.35 77.04C1764.35 77.04 1767.86 75.7003 1770.37 73.1575C1772.89 70.614 1774.31 66.9554 1774.31 62.48H1772.31C1772.31 66.5246 1771.03 69.646 1768.95 71.7525C1766.87 73.8596 1763.9 75.04 1760.35 75.04V77.04ZM1774.31 62.48C1774.31 58.0046 1772.89 54.346 1770.37 51.8025C1767.86 49.2597 1764.35 47.92 1760.35 47.92V49.92C1763.9 49.92 1766.87 51.1003 1768.95 53.2075C1771.03 55.314 1772.31 58.4354 1772.31 62.48H1774.31ZM1752.31 3.36H1768.27V1.36H1752.31V3.36ZM1767.27 2.36V21.8H1769.27V2.36H1767.27ZM1768.27 20.8H1752.31V22.8H1768.27V20.8ZM1753.31 21.8V2.36H1751.31V21.8H1753.31ZM1909.74 0.439993V-0.560007H1908.74V0.439993H1909.74ZM1925.82 0.439993H1926.82V-0.560007H1925.82V0.439993ZM1925.82 111.92V112.92H1926.82V111.92H1925.82ZM1909.74 111.92H1908.74V112.92H1909.74V111.92ZM1922.22 41.6V40.6H1921.22V41.6H1922.22ZM1941.9 41.6H1942.9V40.6H1941.9V41.6ZM1941.9 54.68V55.68H1942.9V54.68H1941.9ZM1922.22 54.68H1921.22V55.68H1922.22V54.68ZM1843.02 71.96V70.96H1842.02V71.96H1843.02ZM1902.18 68.48L1903.17 68.3626L1903.05 67.3112L1902 67.4952L1902.18 68.48ZM1903.74 81.68L1903.91 82.6644L1904.84 82.4987L1904.73 81.5626L1903.74 81.68ZM1843.02 85.16H1842.02V86.16H1843.02V85.16ZM1843.02 10.76V9.76H1842.02V10.76H1843.02ZM1894.86 10.76H1895.86V9.76H1894.86V10.76ZM1894.86 23.6V24.6H1895.86V23.6H1894.86ZM1858.86 23.6V22.6H1857.86V23.6H1858.86ZM1858.86 78.32V79.32H1859.86V78.32H1858.86ZM1843.02 78.32H1842.02V79.32H1843.02V78.32ZM1909.74 1.43999H1925.82V-0.560007H1909.74V1.43999ZM1924.82 0.439993V111.92H1926.82V0.439993H1924.82ZM1925.82 110.92H1909.74V112.92H1925.82V110.92ZM1910.74 111.92V0.439993H1908.74V111.92H1910.74ZM1922.22 42.6H1941.9V40.6H1922.22V42.6ZM1940.9 41.6V54.68H1942.9V41.6H1940.9ZM1941.9 53.68H1922.22V55.68H1941.9V53.68ZM1923.22 54.68V41.6H1921.22V54.68H1923.22ZM1843.02 72.96H1852.38V70.96H1843.02V72.96ZM1852.38 72.96C1871.12 72.96 1885.95 72.3598 1902.35 69.4648L1902 67.4952C1885.77 70.3602 1871.08 70.96 1852.38 70.96V72.96ZM1901.19 68.5974L1902.75 81.7974L1904.73 81.5626L1903.17 68.3626L1901.19 68.5974ZM1903.56 80.6956C1886.85 83.6795 1871.68 84.16 1852.38 84.16V86.16C1871.71 86.16 1887.02 85.6805 1903.91 82.6644L1903.56 80.6956ZM1852.38 84.16H1843.02V86.16H1852.38V84.16ZM1844.02 85.16V71.96H1842.02V85.16H1844.02ZM1843.02 11.76H1894.86V9.76H1843.02V11.76ZM1893.86 10.76V23.6H1895.86V10.76H1893.86ZM1894.86 22.6H1858.86V24.6H1894.86V22.6ZM1857.86 23.6V78.32H1859.86V23.6H1857.86ZM1858.86 77.32H1843.02V79.32H1858.86V77.32ZM1844.02 78.32V10.76H1842.02V78.32H1844.02ZM1954.9 99.125L1954.19 99.8271L1954.19 99.8321L1954.2 99.8371L1954.9 99.125ZM1954.9 84.7216L1954.2 84.0095L1954.19 84.0145L1954.9 84.7216ZM1969.3 84.7216L1968.61 85.4386L1969.3 84.7216ZM1970.92 97.0369L1970.07 96.5111L1970.07 96.5155L1970.92 97.0369ZM1967.22 100.744L1967.73 101.605L1967.74 101.598L1967.22 100.744ZM1962.14 101.108C1959.6 101.108 1957.43 100.219 1955.6 98.4129L1954.2 99.8371C1956.4 102.009 1959.07 103.108 1962.14 103.108V101.108ZM1955.61 98.4229C1953.81 96.5915 1952.92 94.4283 1952.92 91.8807H1950.92C1950.92 94.958 1952.02 97.6244 1954.19 99.8271L1955.61 98.4229ZM1952.92 91.8807C1952.92 89.3648 1953.8 87.2319 1955.61 85.4287L1954.19 84.0145C1952.02 86.1885 1950.92 88.8284 1950.92 91.8807H1952.92ZM1955.6 85.4337C1957.43 83.6281 1959.6 82.7386 1962.14 82.7386V80.7386C1959.07 80.7386 1956.4 81.8378 1954.2 84.0095L1955.6 85.4337ZM1962.14 82.7386C1964.6 82.7386 1966.74 83.6222 1968.61 85.4386L1970 84.0046C1967.78 81.8438 1965.14 80.7386 1962.14 80.7386V82.7386ZM1968.61 85.4386C1970.46 87.2442 1971.37 89.3741 1971.37 91.8807H1973.37C1973.37 88.8191 1972.23 86.1763 1970 84.0046L1968.61 85.4386ZM1971.37 91.8807C1971.37 93.574 1970.94 95.11 1970.07 96.5111L1971.77 97.5628C1972.84 95.8388 1973.37 93.9374 1973.37 91.8807H1971.37ZM1970.07 96.5155C1969.21 97.9142 1968.09 99.0363 1966.69 99.891L1967.74 101.598C1969.41 100.577 1970.76 99.2278 1971.78 97.5584L1970.07 96.5155ZM1966.71 99.884C1965.33 100.698 1963.82 101.108 1962.14 101.108V103.108C1964.16 103.108 1966.03 102.608 1967.72 101.605L1966.71 99.884Z" fill="#949494" mask="url(#path-1-outside-1_5_214)"/>
</svg>
